<svg width="192" height="192" viewBox="0 0 192 192" fill="none" xmlns="http://www.w3.org/2000/svg">
  <circle cx="96" cy="96" r="96" fill="url(#logoGradient)"/>
  <path d="M96 48C114.881 48 130 63.1188 130 82C130 100.881 114.881 116 96 116C77.1188 116 62 100.881 62 82C62 63.1188 77.1188 48 96 48ZM96 68C88.0589 68 81.5 74.5589 81.5 82.5C81.5 90.4411 88.0589 97 96 97C103.941 97 110.5 90.4411 110.5 82.5C110.5 74.5589 103.941 68 96 68ZM96 77C98.9706 77 101.5 79.5294 101.5 82.5C101.5 85.4706 98.9706 88 96 88C93.0294 88 90.5 85.4706 90.5 82.5C90.5 79.5294 93.0294 77 96 77Z" fill="white"/>
  <path d="M84 132H108C111.314 132 114 134.686 114 138C114 141.314 111.314 144 108 144H84C80.6863 144 78 141.314 78 138C78 134.686 80.6863 132 84 132Z" fill="white"/>
  <defs>
    <linearGradient id="logoGradient" x1="0" y1="0" x2="192" y2="192" gradientUnits="userSpaceOnUse">
      <stop stop-color="#1e88e5"/>
      <stop offset="1" stop-color="#42a5f5"/>
    </linearGradient>
  </defs>
</svg>
